<svg width="146" height="44" viewBox="0 0 146 44" fill="none" xmlns="http://www.w3.org/2000/svg"><rect width="146" height="44" rx="8" fill="#21201F"/><path d="M29.2 21.33a5.46 5.46 0 0 1 2.58-4.57 5.56 5.56 0 0 0-4.37-2.37c-1.84-.2-3.62 1.1-4.56 1.1-.95 0-2.4-1.08-3.95-1.05a5.8 5.8 0 0 0-4.9 3c-2.11 3.69-.53 9.1 1.5 12.08 1.01 1.45 2.2 3.08 3.75 3.02 1.52-.06 2.08-.97 3.92-.97 1.81 0 2.34.97 3.93.94 1.63-.03 2.65-1.47 3.63-2.94a12.08 12.08 0 0 0 1.67-3.4 5.24 5.24 0 0 1-3.2-4.84z" fill="#fff"/><path d="M26.2 12.43a5.38 5.38 0 0 0 1.23-3.84 5.42 5.42 0 0 0-4.5 3.55c-.22.64-.3 1.3-.26 1.97a4.47 4.47 0 0 0 3.54-1.68z" fill="#fff"/><path d="M52.3 29.85h-5.17l-1.25 3.7h-2.2l4.92-13.66h2.28l4.9 13.66h-2.23l-1.24-3.7zm-4.64-1.7h4.11l-2.02-6h-.06l-2.03 6z" fill="#fff"/><path d="M66.38 28.57c0 3.1-1.64 5.08-4.13 5.08a3.35 3.35 0 0 1-3.12-1.74h-.05v4.93h-2.03V23.59h1.97v1.65h.04a3.52 3.52 0 0 1 3.15-1.76c2.52 0 4.17 2 4.17 5.09zm-2.09 0c0-2.02-1.03-3.35-2.62-3.35-1.55 0-2.6 1.36-2.6 3.35 0 2 1.05 3.35 2.6 3.35 1.59 0 2.62-1.32 2.62-3.35z" fill="#fff"/><path d="M77.3 28.57c0 3.1-1.65 5.08-4.14 5.08a3.35 3.35 0 0 1-3.12-1.74h-.05v4.93h-2.03V23.59h1.97v1.65h.03a3.52 3.52 0 0 1 3.16-1.76c2.52 0 4.17 2 4.17 5.09zm-2.1 0c0-2.02-1.03-3.35-2.62-3.35-1.55 0-2.6 1.36-2.6 3.35 0 2 1.05 3.35 2.6 3.35 1.59 0 2.62-1.32 2.62-3.35z" fill="#fff"/><path d="M84.5 29.74c.15 1.35 1.46 2.24 3.25 2.24 1.72 0 2.95-.89 2.95-2.1 0-1.07-.74-1.7-2.5-2.14l-1.77-.42c-2.5-.61-3.65-1.78-3.65-3.69 0-2.35 2.04-3.97 4.95-3.97 2.87 0 4.84 1.62 4.9 3.97h-2.05c-.12-1.36-1.24-2.18-2.88-2.18s-2.76.83-2.76 2.04c0 .97.71 1.54 2.47 1.97l1.5.37c2.78.66 3.94 1.79 3.94 3.79 0 2.55-2.02 4.15-5.25 4.15-3.01 0-5.05-1.56-5.18-4.03h2.08z" fill="#fff"/><path d="M97.24 21.23v2.36h1.89v1.62h-1.89v5.49c0 .85.38 1.25 1.2 1.25.23 0 .45-.02.68-.05v1.6c-.38.08-.75.1-1.13.1-2.01 0-2.8-.76-2.8-2.69v-5.7h-1.43v-1.62h1.44v-2.36h2.04z" fill="#fff"/><path d="M100.22 28.57c0-3.14 1.83-5.1 4.7-5.1s4.7 1.96 4.7 5.1c0 3.14-1.82 5.1-4.7 5.1s-4.7-1.96-4.7-5.1zm7.33 0c0-2.15-.98-3.42-2.63-3.42s-2.63 1.28-2.63 3.42c0 2.15.98 3.41 2.63 3.41s2.63-1.26 2.63-3.41z" fill="#fff"/><path d="M111.3 23.59h1.94v1.7h.05a2.37 2.37 0 0 1 2.38-1.8c.23 0 .47.02.7.07v1.91c-.3-.09-.6-.13-.92-.12a2.04 2.04 0 0 0-2.12 2.29v5.9h-2.03V23.6z" fill="#fff"/><path d="M125.75 30.62c-.28 1.8-2.03 3.05-4.27 3.05-2.89 0-4.67-1.94-4.67-5.06 0-3.12 1.8-5.15 4.58-5.15 2.75 0 4.47 1.9 4.47 4.92v.7h-7v.12a2.62 2.62 0 0 0 1.6 2.63c.34.14.7.2 1.07.2a2.23 2.23 0 0 0 2.28-1.41h1.94zm-6.88-2.97h4.95a2.4 2.4 0 0 0-2.43-2.53 2.5 2.5 0 0 0-2.33 1.56c-.13.3-.2.64-.2.97z" fill="#fff"/><path d="M46.22 12.38h.87a1.1 1.1 0 0 0 1.23-1.05c0-.6-.45-1-1.22-1a1.16 1.16 0 0 0-1.32 1.03h-.96a2.06 2.06 0 0 1 2.31-1.92c1.29 0 2.2.73 2.2 1.77a1.53 1.53 0 0 1-1.2 1.5v.08a1.52 1.52 0 0 1 1.46 1.59 2.2 2.2 0 0 1-1.58 1.88c-.28.08-.57.1-.86.07a2.16 2.16 0 0 1-2.45-1.95h.97c.06.63.63 1.04 1.48 1.04s1.4-.46 1.4-1.1c0-.65-.52-1.05-1.43-1.05h-.9v-.9z" fill="#fff"/><path d="M50.7 14.77c0-.9.66-1.4 1.83-1.48l1.34-.08v-.43c0-.52-.35-.81-1.01-.81-.55 0-.92.2-1.03.55h-.94c.1-.86.9-1.4 2.01-1.4 1.24 0 1.94.62 1.94 1.66v3.39h-.94v-.7h-.08a1.66 1.66 0 0 1-1.48.78 1.48 1.48 0 0 1-1.64-1.48zm3.17-.43v-.41l-1.2.08c-.69.04-1 .27-1 .71 0 .45.39.7.92.7a1.16 1.16 0 0 0 1.28-1.08z" fill="#fff"/><path d="M57.42 12.04v4.13h-.98V11.2h3.25v.83h-2.27z" fill="#fff"/><path d="M65.59 13.69c0 1.57-.8 2.56-2.04 2.56a1.6 1.6 0 0 1-1.52-.83h-.07v2.4h-.98v-6.6h.94v.81h.07a1.72 1.72 0 0 1 1.55-.9c1.25 0 2.05.98 2.05 2.56zm-1 0c0-1.05-.5-1.68-1.32-1.68-.82 0-1.33.65-1.33 1.68 0 1.04.5 1.68 1.32 1.68.83 0 1.33-.63 1.33-1.68z" fill="#fff"/><path d="M66.88 17.94v-.84l.32.02a.84.84 0 0 0 .9-.7l.06-.23-1.78-4.98h1.06l1.23 3.94h.08l1.23-3.94h1.03l-1.83 5.16c-.42 1.2-.89 1.6-1.9 1.6-.08 0-.3-.01-.4-.03z" fill="#fff"/><path d="M71.77 14.76h.97c.1.44.5.67 1.07.67.65 0 1.05-.29 1.05-.74 0-.47-.36-.7-1.05-.7h-.73v-.76h.72c.59 0 .89-.23.89-.64 0-.37-.3-.64-.89-.64-.54 0-.94.23-1 .62h-.94a1.74 1.74 0 0 1 1.94-1.45c1.17 0 1.84.53 1.84 1.37a1.02 1.02 0 0 1-.78 1.01v.08a1.1 1.1 0 0 1 .97 1.11c0 .95-.8 1.57-2.02 1.57-1.07 0-1.95-.5-2.04-1.5z" fill="#fff"/><path d="M77.23 16.17V11.2h.96v3.41h.08l2.27-3.4h.97v4.95h-.97v-3.43h-.07l-2.28 3.43h-.96z" fill="#fff"/><path d="M86.82 12.04h-1.55v4.13h-.98v-4.13h-1.55v-.83h4.08v.83z" fill="#fff"/><path d="M92.06 14.83a2.01 2.01 0 0 1-2.14 1.43 2.23 2.23 0 0 1-2.2-1.59c-.1-.31-.12-.64-.07-.96a2.3 2.3 0 0 1 2.27-2.6c1.37 0 2.2.95 2.2 2.5v.35h-3.48V14a1.31 1.31 0 0 0 1.31 1.42 1.18 1.18 0 0 0 1.17-.6h.94zm-3.42-1.6h2.49a1.2 1.2 0 0 0-1.22-1.28 1.25 1.25 0 0 0-1.27 1.28z" fill="#fff"/><path d="M96.18 11.21h2.23c.96 0 1.53.5 1.53 1.26a1.07 1.07 0 0 1-.84 1.05v.08a1.12 1.12 0 0 1 1.06 1.14c0 .86-.65 1.43-1.73 1.43h-2.25V11.2zm.97.76v1.28h.96c.6 0 .87-.23.87-.65 0-.38-.24-.63-.76-.63h-1.07zm0 2v1.45h1.15c.58 0 .89-.26.89-.73 0-.5-.35-.72-1.01-.72h-1.03z" fill="#fff"/></svg>