<svg width="146" height="44" viewBox="0 0 146 44" fill="none" xmlns="http://www.w3.org/2000/svg"><rect width="146" height="44" rx="8" fill="#21201F"/><path d="M10.48 8.44c-.32.34-.5.87-.5 1.54v24.28c0 .68.18 1.21.5 1.54l.08.08 13.57-13.6v-.33L10.56 8.36l-.08.08z" fill="url(#51bafbdacef6626b33455f89dc2eaf7a__a)"/><path d="m28.66 26.82-4.53-4.54v-.33l4.53-4.53.1.05 5.36 3.06c1.53.86 1.53 2.3 0 3.17l-5.36 3.05-.1.07z" fill="url(#51bafbdacef6626b33455f89dc2eaf7a__b)"/><path d="m28.76 26.75-4.63-4.63L10.48 35.8c.5.54 1.34.6 2.28.07l16-9.12z" fill="url(#51bafbdacef6626b33455f89dc2eaf7a__c)"/><path d="m28.76 17.49-16-9.12c-.95-.54-1.78-.47-2.29.07l13.66 13.68 4.63-4.63z" fill="url(#51bafbdacef6626b33455f89dc2eaf7a__d)"/><path opacity=".2" d="m28.66 26.65-15.9 9.06c-.9.5-1.7.47-2.2.01l-.08.08.08.08c.51.46 1.3.49 2.2-.01l16-9.12-.1-.1z" fill="#21201F"/><path opacity=".12" d="M10.48 35.65a2.2 2.2 0 0 1-.5-1.54v.16c0 .68.18 1.21.5 1.54l.08-.08-.08-.08z" fill="#21201F"/><path opacity=".12" d="m34.12 23.55-5.47 3.1.1.1 5.35-3.05c.77-.44 1.16-1.01 1.16-1.58-.06.52-.44 1.03-1.14 1.43z" fill="#21201F"/><path opacity=".25" d="m12.75 8.53 21.37 12.16c.69.4 1.08.9 1.15 1.43 0-.57-.39-1.15-1.15-1.58L12.75 8.37c-1.53-.86-2.78-.14-2.78 1.62v.16c0-1.77 1.26-2.5 2.78-1.62z" fill="#21201F"/><path d="M73.7 23.92a4.6 4.6 0 0 0-4.68 4.67 4.6 4.6 0 0 0 4.68 4.66 4.6 4.6 0 0 0 4.68-4.66 4.6 4.6 0 0 0-4.68-4.67zm0 7.5c-1.41 0-2.63-1.16-2.63-2.83 0-1.68 1.22-2.84 2.63-2.84 1.42 0 2.63 1.16 2.63 2.84 0 1.67-1.22 2.83-2.63 2.83zm-10.2-7.5a4.6 4.6 0 0 0-4.69 4.67 4.6 4.6 0 0 0 4.68 4.66 4.6 4.6 0 0 0 4.68-4.66 4.6 4.6 0 0 0-4.68-4.67zm0 7.5c-1.42 0-2.64-1.16-2.64-2.83 0-1.68 1.22-2.84 2.63-2.84s2.63 1.16 2.63 2.84c0 1.67-1.22 2.83-2.63 2.83zm-12.15-6.06v1.98h4.73a4.17 4.17 0 0 1-1.07 2.49 4.83 4.83 0 0 1-3.65 1.45 5.2 5.2 0 0 1-5.2-5.27 5.2 5.2 0 0 1 8.76-3.86l1.4-1.4a6.89 6.89 0 0 0-4.97-1.99 7.34 7.34 0 0 0-7.34 7.26c0 4 3.35 7.26 7.34 7.26a6.6 6.6 0 0 0 5.05-2.04 6.56 6.56 0 0 0 1.71-4.63 6 6 0 0 0-.1-1.24h-6.66v-.01zM101 26.9c-.39-1.05-1.57-2.98-4-2.98-2.4 0-4.39 1.89-4.39 4.67a4.56 4.56 0 0 0 4.63 4.66c2.14 0 3.37-1.3 3.88-2.06l-1.6-1.07a2.65 2.65 0 0 1-2.28 1.3A2.37 2.37 0 0 1 94.98 30l6.24-2.58-.22-.52zm-6.36 1.55a2.56 2.56 0 0 1 2.43-2.72c.82 0 1.5.4 1.74.99l-4.17 1.73zm-5.06 4.53h2.05V19.25h-2.05v13.73zm-3.35-8.02h-.08a3.22 3.22 0 0 0-2.45-1.04 4.64 4.64 0 0 0-4.47 4.69 4.63 4.63 0 0 0 4.47 4.65c1.1 0 1.99-.49 2.45-1.06h.07v.67c0 1.79-.96 2.74-2.5 2.74-1.24 0-2.02-.9-2.34-1.65l-1.78.74a4.44 4.44 0 0 0 4.13 2.76c2.4 0 4.43-1.42 4.43-4.87v-8.38h-1.94v.75zm-2.36 6.46c-1.41 0-2.6-1.19-2.6-2.81 0-1.65 1.19-2.85 2.6-2.85 1.4 0 2.49 1.21 2.49 2.85 0 1.62-1.09 2.81-2.49 2.81zm26.72-12.17h-4.9v13.73h2.06v-5.2h2.86c2.26 0 4.49-1.65 4.49-4.27 0-2.6-2.25-4.26-4.5-4.26zm.05 6.61h-2.9v-4.7h2.9c1.53 0 2.4 1.27 2.4 2.34 0 1.08-.87 2.36-2.4 2.36zm12.64-1.96c-1.48 0-3.01.66-3.65 2.1l1.82.75c.39-.75 1.11-1 1.87-1 1.05 0 2.13.63 2.14 1.76v.14a4.56 4.56 0 0 0-2.13-.52c-1.96 0-3.95 1.07-3.95 3.08 0 1.84 1.6 3.02 3.4 3.02 1.37 0 2.14-.61 2.6-1.34h.07v1.07h1.97V27.7c.02-2.44-1.8-3.8-4.14-3.8zm-.25 7.52c-.67 0-1.6-.34-1.6-1.16 0-1.06 1.16-1.46 2.17-1.46.9 0 1.33.2 1.86.46a2.47 2.47 0 0 1-2.43 2.16zm11.6-7.23-2.35 5.96h-.07l-2.43-5.96h-2.2l3.65 8.33-2.08 4.62h2.13l5.62-12.95h-2.28zm-18.41 8.79h2.05V19.25h-2.05v13.73z" fill="#fff"/><path d="M46.06 11.48h.87a1.1 1.1 0 0 0 1.23-1.04c0-.6-.45-1-1.22-1a1.16 1.16 0 0 0-1.32 1.03h-.96a2.06 2.06 0 0 1 2.31-1.92c1.29 0 2.2.72 2.2 1.76a1.52 1.52 0 0 1-1.2 1.5v.08a1.52 1.52 0 0 1 1.46 1.58A2.2 2.2 0 0 1 47 15.42a2.17 2.17 0 0 1-2.46-1.94h.98c.06.63.63 1.03 1.48 1.03s1.4-.45 1.4-1.1c0-.64-.52-1.04-1.43-1.04h-.9v-.89z" fill="#fff"/><path d="M50.54 13.86c0-.89.66-1.4 1.83-1.47l1.34-.08v-.43c0-.52-.34-.81-1.01-.81-.54 0-.92.2-1.03.55h-.94c.1-.85.9-1.4 2.02-1.4 1.23 0 1.93.62 1.93 1.66v3.38h-.94v-.7h-.07a1.66 1.66 0 0 1-1.49.78 1.49 1.49 0 0 1-1.64-1.48zm3.17-.42v-.41l-1.2.08c-.68.04-1 .27-1 .7 0 .45.4.71.92.71a1.16 1.16 0 0 0 1.28-1.08z" fill="#fff"/><path d="M57.26 11.14v4.12h-.97v-4.94h3.25v.82h-2.28z" fill="#fff"/><path d="M65.44 12.79c0 1.57-.8 2.55-2.04 2.55a1.6 1.6 0 0 1-1.52-.83h-.07v2.4h-.98v-6.6h.94v.82h.07a1.72 1.72 0 0 1 1.55-.9c1.26 0 2.05.99 2.05 2.56zm-1 0c0-1.05-.5-1.68-1.32-1.68-.82 0-1.33.65-1.33 1.68 0 1.03.51 1.68 1.33 1.68.83 0 1.32-.63 1.32-1.68z" fill="#fff"/><path d="M66.74 17.03v-.84c.1.02.2.02.32.02a.84.84 0 0 0 .89-.69l.07-.24-1.79-4.96h1.06l1.24 3.92h.08l1.23-3.92h1.03l-1.84 5.15c-.42 1.2-.88 1.58-1.89 1.58-.08 0-.31 0-.4-.02z" fill="#fff"/><path d="M71.63 13.86h.97c.1.43.5.66 1.08.66.64 0 1.04-.28 1.04-.73 0-.48-.36-.7-1.04-.7h-.74v-.76h.72c.6 0 .9-.23.9-.64 0-.36-.3-.64-.9-.64-.54 0-.94.23-1 .62h-.94a1.73 1.73 0 0 1 1.94-1.45c1.18 0 1.85.53 1.85 1.37a1.02 1.02 0 0 1-.78 1.01v.08a1.1 1.1 0 0 1 .96 1.11c0 .94-.8 1.56-2.01 1.56-1.08 0-1.96-.5-2.05-1.5z" fill="#fff"/><path d="M77.1 15.26v-4.94h.96v3.4h.08l2.27-3.4h.97v4.94h-.97v-3.42h-.07l-2.28 3.42h-.97z" fill="#fff"/><path d="M86.7 11.14h-1.56v4.12h-.98v-4.12h-1.55v-.82h4.08v.82z" fill="#fff"/><path d="M91.94 13.93a2 2 0 0 1-2.14 1.43 2.24 2.24 0 0 1-2.28-2.55 2.29 2.29 0 0 1 2.27-2.59c1.38 0 2.2.94 2.2 2.5v.34h-3.48v.05a1.3 1.3 0 0 0 1.32 1.42 1.18 1.18 0 0 0 1.17-.6h.94zm-3.43-1.6h2.5a1.2 1.2 0 0 0-1.22-1.28 1.26 1.26 0 0 0-1.28 1.28z" fill="#fff"/><path d="M96.07 10.32h2.22c.97 0 1.53.49 1.53 1.25a1.06 1.06 0 0 1-.83 1.05v.08a1.13 1.13 0 0 1 1.05 1.14c0 .86-.64 1.42-1.73 1.42h-2.24v-4.94zm.96.75v1.28H98c.58 0 .87-.23.87-.65 0-.38-.25-.63-.77-.63h-1.07zm0 2v1.44h1.16c.57 0 .88-.25.88-.72 0-.5-.35-.73-1-.73h-1.04z" fill="#fff"/><defs><linearGradient id="51bafbdacef6626b33455f89dc2eaf7a__a" x1="22.929" y1="9.723" x2="4.502" y2="28.111" gradientUnits="userSpaceOnUse"><stop stop-color="#00A0FF"/><stop offset=".007" stop-color="#00A1FF"/><stop offset=".26" stop-color="#00BEFF"/><stop offset=".512" stop-color="#00D2FF"/><stop offset=".76" stop-color="#00DFFF"/><stop offset="1" stop-color="#00E3FF"/></linearGradient><linearGradient id="51bafbdacef6626b33455f89dc2eaf7a__b" x1="36.115" y1="22.12" x2="9.602" y2="22.12" gradientUnits="userSpaceOnUse"><stop stop-color="#FFE000"/><stop offset=".409" stop-color="#FFBD00"/><stop offset=".775" stop-color="orange"/><stop offset="1" stop-color="#FF9C00"/></linearGradient><linearGradient id="51bafbdacef6626b33455f89dc2eaf7a__c" x1="26.246" y1="24.64" x2="1.258" y2="49.576" gradientUnits="userSpaceOnUse"><stop stop-color="#FF3A44"/><stop offset="1" stop-color="#C31162"/></linearGradient><linearGradient id="51bafbdacef6626b33455f89dc2eaf7a__d" x1="7.039" y1=".353" x2="18.198" y2="11.488" gradientUnits="userSpaceOnUse"><stop stop-color="#32A071"/><stop offset=".069" stop-color="#2DA771"/><stop offset=".476" stop-color="#15CF74"/><stop offset=".801" stop-color="#06E775"/><stop offset="1" stop-color="#00F076"/></linearGradient></defs></svg>